<svg width="20" height="20" viewBox="0 0 20 20" fill="none" xmlns="http://www.w3.org/2000/svg">
<path d="M17.5755 14.3754C17.3678 15.4972 16.8397 16.6819 15.4976 17.4662C13.2536 18.7773 11.2122 18.5737 7.48544 18.5737C4.94853 18.5737 2.88324 16.517 2.88324 13.9802C2.88324 12.1527 3.60918 10.4002 4.90135 9.10797C5.23483 8.77454 5.59898 8.47875 5.98716 8.22345" stroke="black" stroke-width="1.25" stroke-linecap="round" stroke-linejoin="round"/>
<path d="M15.8884 14.973C17.336 14.973 18.5096 13.7994 18.5096 12.3518C18.5096 10.9042 17.336 9.7307 15.8884 9.7307C14.4408 9.7307 13.2673 10.9042 13.2673 12.3518C13.2673 13.7994 14.4408 14.973 15.8884 14.973Z" stroke="black" stroke-width="1.25" stroke-linecap="round" stroke-linejoin="round"/>
<path d="M8.21695 8.95102C10.2692 8.95102 11.933 7.28731 11.933 5.23501C11.933 3.1827 10.2692 1.51898 8.21695 1.51898C6.16464 1.51898 4.50092 3.1827 4.50092 5.23501C4.50092 7.28731 6.16464 8.95102 8.21695 8.95102Z" stroke="black" stroke-width="1.25" stroke-linecap="round" stroke-linejoin="round"/>
<path d="M6.22134 13.4943V13.5588C6.22134 14.6375 7.09579 15.5119 8.17447 15.5119H10.2129" stroke="black" stroke-width="1.25" stroke-linecap="round" stroke-linejoin="round"/>
<path d="M13.323 11.8051C12.9827 11.9747 12.6341 12.1673 12.2798 12.3743C10.7495 13.2685 9.62727 14.0261 9.36383 15.1659V15.4932" stroke="black" stroke-width="1.25" stroke-linecap="round" stroke-linejoin="round"/>
<path d="M15.2566 9.80757C15.0699 9.56226 14.866 9.32843 14.6455 9.10804C13.724 8.18642 12.5682 7.55285 11.3181 7.26526" stroke="black" stroke-width="1.25" stroke-linecap="round" stroke-linejoin="round"/>
</svg>
